<?xml version="1.0" encoding="utf-8"?>
<!-- Generator: Adobe Illustrator 24.2.3, SVG Export Plug-In . SVG Version: 6.00 Build 0)  -->
<svg version="1.1" id="Layer_1" xmlns="http://www.w3.org/2000/svg" xmlns:xlink="http://www.w3.org/1999/xlink" x="0px" y="0px"
	 viewBox="0 0 15 40" style="enable-background:new 0 0 15 40;" xml:space="preserve">
<style type="text/css">
	.st0{fill:#FFFFFF;}
</style>
<path class="st0" d="M0,17.2c0,2.1,2.1,4,3.8,5.1L2.8,40h6.4l-1-17.7c1.7-1.1,3.8-2.9,3.8-5.1L10.7,2.1c0,0-0.2-0.2-0.6-0.2
	c-0.4,0-0.7,0.2-0.7,0.2l-1,11.5c0,0.5-0.7,0.5-0.8,0l-1-11.5c0,0-0.3-0.2-0.7-0.2c-0.4,0-0.6,0.2-0.6,0.2l-1,11.6
	c0,0.5-0.7,0.5-0.8,0l-1-11.6c0,0-0.2-0.2-0.7-0.2S1.4,2.1,1.4,2.1"/>
</svg>
