<?xml version="1.0" encoding="utf-8"?>
<!-- Generator: Adobe Illustrator 24.2.3, SVG Export Plug-In . SVG Version: 6.00 Build 0)  -->
<svg version="1.1" id="Layer_1" xmlns="http://www.w3.org/2000/svg" xmlns:xlink="http://www.w3.org/1999/xlink" x="0px" y="0px"
	 viewBox="0 0 30 30" style="enable-background:new 0 0 30 30;" xml:space="preserve">
<style type="text/css">
	.st0{fill:#009245;stroke:#006837;stroke-width:0.5927;stroke-miterlimit:10;}
	.st1{fill:#FBB03B;stroke:#F15A24;stroke-width:0.8743;stroke-miterlimit:10;}
	.st2{fill:#FBB03B;stroke:#F15A24;stroke-width:0.4372;stroke-miterlimit:10;}
	.st3{fill:#8C6239;stroke:#A67C52;stroke-width:2;stroke-miterlimit:10;}
	.st4{fill:#C69C6D;stroke:#534741;stroke-miterlimit:10;}
	.st5{fill:none;stroke:#534741;stroke-width:0.5;stroke-miterlimit:10;}
</style>
<path class="st0" d="M22.5,6.5c-0.3-0.2-0.5-0.2-0.8-0.3c-0.1-0.2-0.3-0.5-0.6-0.7c-0.5-0.3-1-0.4-1.4-0.2c-0.1-0.1-0.2-0.3-0.4-0.4
	c-0.5-0.3-1-0.3-1.2,0c-0.1,0.1-0.1,0.3,0,0.5c-0.1,0-0.1,0-0.2,0.1c-0.2-0.1-0.5-0.2-0.8-0.2c-0.6,0-1.1,0.3-1.3,0.7
	c-0.2-0.1-0.3-0.1-0.5-0.1c-0.6,0-1,0.3-1,0.7c0,0.2,0.2,0.4,0.4,0.6c-0.1,0.2-0.3,0.5-0.3,0.7c0,0.7,0.6,1.3,1.2,1.3
	c0.1,0,0.2,0,0.3-0.1c0.3,0.5,0.8,0.8,1.3,0.8l0.7,2.4l0.6-0.2l0.6,0.2L20,9.8c0.5,0,1-0.3,1.3-0.8c0,0,0,0,0,0
	c0.5,0.3,0.9,0.3,1,0.1c0.1-0.1,0-0.4-0.2-0.6c0.3,0,0.7-0.1,0.8-0.4C23.3,7.6,23.1,6.9,22.5,6.5z M18.7,10.4l-0.3-0.9
	c0.1-0.1,0.2-0.2,0.3-0.3c0.1,0.1,0.1,0.2,0.2,0.3L18.7,10.4z"/>
<path class="st0" d="M29.6,8.5c-0.2-0.2-0.4-0.4-0.7-0.5c-0.1-0.3-0.2-0.6-0.4-0.8c-0.4-0.4-0.9-0.6-1.3-0.6
	c-0.1-0.2-0.1-0.3-0.3-0.5c-0.4-0.4-0.9-0.6-1.2-0.3c-0.1,0.1-0.1,0.3-0.1,0.4c-0.1,0-0.1,0-0.2,0c-0.2-0.2-0.4-0.4-0.7-0.4
	c-0.6-0.2-1.1,0-1.4,0.3C23.2,6.1,23.1,6,22.9,6c-0.5-0.2-1.1,0-1.2,0.4C21.6,6.6,21.8,6.8,22,7c-0.2,0.2-0.4,0.4-0.4,0.6
	c-0.2,0.7,0.2,1.4,0.9,1.6c0.1,0,0.2,0,0.3,0c0.2,0.5,0.5,1,1.1,1.1l-0.7,4.3l0.6,0l0.5,0.3l2.1-3.9c0.5,0.1,1.1,0,1.5-0.4
	c0,0,0,0,0,0c0.4,0.4,0.8,0.5,1,0.4c0.1-0.1,0.1-0.4,0-0.7c0.3,0.1,0.7,0.1,0.9-0.2C30.1,9.8,30.1,9.1,29.6,8.5z M24.9,11.3l0-1
	c0.1,0,0.2-0.1,0.4-0.2c0.1,0.1,0.1,0.2,0.1,0.3L24.9,11.3z"/>
<ellipse class="st1" cx="18.6" cy="13" rx="3.8" ry="4"/>
<ellipse class="st2" cx="18.2" cy="11" rx="0.6" ry="0.6"/>
<path class="st3" d="M15.1,22.1l-1.4,0.6c-1.5,0.7-3.3-0.2-4-1.9L3.7,6.2C3,4.5,3.7,2.6,5.2,1.9l1.4-0.6c1.5-0.7,3.3,0.2,4,1.9
	l5.9,14.6C17.2,19.5,16.6,21.4,15.1,22.1z"/>
<path class="st4" d="M23.4,30H7.6c-1.9,0-3.4-1.5-3.4-3.4V14.5h22.6v12.1C26.9,28.5,25.3,30,23.4,30z"/>
<line class="st5" x1="4.2" y1="21.3" x2="26.9" y2="21.3"/>
</svg>
